# xmcd
#
# Track frame offsets:
#	150
#	11400
#	22650
#	39150
#	51150
#	71400
#	85275
#	105525
#	121650
#	138525
#	150525
#	164775
#
# Disc length: 2432 seconds
#
# Revision: 1
# Processed by: cddbd v1.5.2PL0 Copyright (c) Steve Scherf et al.
# Submitted via: audiograbber 1.83.01
#
DISCID=8b097e0c
DTITLE=Rene Trossman Band - Postmarked Illinois
DYEAR=2007
DGENRE=Blues
TTITLE0=Frosty
TTITLE1=My Endless Blue Mood
TTITLE2=Take, Take and Take
TTITLE3=Down and Out
TTITLE4=Postmarked Illinois
TTITLE5=I Wonder Why
TTITLE6=Wasting My Time
TTITLE7=Big Leg Woman
TTITLE8=Easy Baby
TTITLE9=All Your Love
TTITLE10=Ain't Gonna Hurt Me No More
TTITLE11=Feel So Bad
EXTD=
EXTT0=
EXTT1=
EXTT2=
EXTT3=
EXTT4=
EXTT5=
EXTT6=
EXTT7=
EXTT8=
EXTT9=
EXTT10=
EXTT11=
PLAYORDER=
